<svg xmlns="http://www.w3.org/2000/svg" viewBox="0 0 512 512">
  <defs>
    <linearGradient id="g" x1="0" x2="1" y1="0" y2="1">
      <stop offset="0%" stop-color="#e11d2e"/>
      <stop offset="100%" stop-color="#7a0d18"/>
    </linearGradient>
  </defs>
  <rect width="512" height="512" rx="100" fill="#0b0b0d"/>
  <rect x="56" y="56" width="400" height="400" rx="88" fill="url(#g)"/>
  <circle cx="256" cy="256" r="124" fill="none" stroke="#ffd23f" stroke-width="18"/>
  <path d="M318 161c-20-16-42-24-67-24-59 0-107 46-107 119 0 74 50 120 112 120 25 0 48-7 67-21v-53c-20 17-39 25-63 25-40 0-70-27-70-71 0-42 28-70 69-70 23 0 44 8 59 24z" fill="#ffd23f"/>
</svg>
